<?xml version="1.0" encoding="UTF-8"?>
<!DOCTYPE svg PUBLIC "-//W3C//DTD SVG 1.1//EN" "http://www.w3.org/Graphics/SVG/1.1/DTD/svg11.dtd">
<!-- Creator: CorelDRAW 2020 (64 Bit) -->
<?xml-stylesheet href="./ondas.css" type="text/css"?>
<svg xmlns="http://www.w3.org/2000/svg" xml:space="preserve" width="100%" height="100%" version="1.1" style="shape-rendering:geometricPrecision; text-rendering:geometricPrecision; image-rendering:optimizeQuality; fill-rule:evenodd; clip-rule:evenodd"
viewBox="0 0 25400 25400"
 xmlns:xlink="http://www.w3.org/1999/xlink"
 xmlns:xodm="http://www.corel.com/coreldraw/odm/2003">
 <g id="Camada_x0020_1">
  <metadata id="CorelCorpID_0Corel-Layer"/>
  <path class="fil0" d="M2870.73 6665.18c0,371.1 0,1104.23 0,1473.68 0,369.46 0,375.24 2.86,378.82 2.85,3.58 8.56,4.95 1802.19,5.63 1793.62,0.69 5375.17,0.69 7167.07,0.69 1791.9,0 1794.17,0 1795.3,-1.1 1.13,-1.1 1.13,-3.29 1.13,-227.64 0,-224.34 0,-670.82 0,-890.76 0,-219.94 0,-213.32 0,-213.87 0,-0.56 0,-8.28 -79.38,-25.37 -79.37,-17.09 -238.12,-43.55 -379.23,-56.78 -141.11,-13.23 -264.59,-13.23 -427.75,0 -163.16,13.23 -366,39.69 -560.03,79.38 -194.03,39.69 -379.24,92.6 -529.17,145.52 -149.93,52.92 -264.59,105.83 -405.7,185.2 -141.11,79.38 -308.67,185.22 -489.47,286.64 -180.8,101.42 -374.83,198.44 -520.35,268.99 -145.52,70.56 -242.54,114.65 -392.47,163.16 -149.93,48.51 -352.77,101.42 -498.29,132.29 -145.52,30.87 -233.72,39.69 -339.55,35.28 -105.83,-4.41 -229.31,-22.05 -366.01,-52.92 -136.7,-30.87 -286.63,-74.96 -414.51,-123.47 -127.88,-48.51 -233.72,-101.42 -339.55,-163.16 -105.83,-61.74 -211.67,-132.29 -304.27,-194.03 -92.61,-61.74 -171.98,-114.65 -299.86,-202.85 -127.89,-88.19 -304.27,-211.66 -515.94,-357.18 -211.67,-145.52 -458.61,-313.09 -723.19,-458.61 -264.59,-145.52 -546.81,-269 -837.85,-370.42 -291.04,-101.42 -590.91,-180.8 -820.53,-229.3 -229.62,-48.51 -389,-66.15 -547.75,-66.15 -158.75,0 -316.87,17.64 -470.89,35.28 -154.03,17.64 -303.96,35.27 -387.74,44.23 -83.79,8.96 -101.43,9.24 -110.25,13.93 -8.82,4.68 -8.82,13.78 -8.82,384.89z"/>
 </g>
</svg>
